<mxfile host="app.diagrams.net" modified="2020-11-17T00:27:04.435Z" agent="5.0 (Macintosh; Intel Mac OS X 10_15_7) AppleWebKit/605.1.15 (KHTML, like Gecko) Version/14.0 Safari/605.1.15" etag="rQH8pzul3dvGEJ9kiCD6" version="13.9.9" type="github" pages="2">
  <diagram id="C5RBs43oDa-KdzZeNtuy" name="Page-1">
    <mxGraphModel dx="1385" dy="707" grid="1" gridSize="10" guides="1" tooltips="1" connect="1" arrows="1" fold="1" page="1" pageScale="1" pageWidth="827" pageHeight="1169" math="0" shadow="0">
      <root>
        <mxCell id="WIyWlLk6GJQsqaUBKTNV-0" />
        <mxCell id="WIyWlLk6GJQsqaUBKTNV-1" parent="WIyWlLk6GJQsqaUBKTNV-0" />
        <mxCell id="zkfFHV4jXpPFQw0GAbJ--0" value="Person" style="swimlane;fontStyle=2;align=center;verticalAlign=top;childLayout=stackLayout;horizontal=1;startSize=26;horizontalStack=0;resizeParent=1;resizeLast=0;collapsible=1;marginBottom=0;rounded=0;shadow=0;strokeWidth=1;" parent="WIyWlLk6GJQsqaUBKTNV-1" vertex="1">
          <mxGeometry x="220" y="120" width="160" height="138" as="geometry">
            <mxRectangle x="230" y="140" width="160" height="26" as="alternateBounds" />
          </mxGeometry>
        </mxCell>
        <mxCell id="zkfFHV4jXpPFQw0GAbJ--1" value="Name" style="text;align=left;verticalAlign=top;spacingLeft=4;spacingRight=4;overflow=hidden;rotatable=0;points=[[0,0.5],[1,0.5]];portConstraint=eastwest;" parent="zkfFHV4jXpPFQw0GAbJ--0" vertex="1">
          <mxGeometry y="26" width="160" height="26" as="geometry" />
        </mxCell>
        <mxCell id="zkfFHV4jXpPFQw0GAbJ--2" value="Phone Number" style="text;align=left;verticalAlign=top;spacingLeft=4;spacingRight=4;overflow=hidden;rotatable=0;points=[[0,0.5],[1,0.5]];portConstraint=eastwest;rounded=0;shadow=0;html=0;" parent="zkfFHV4jXpPFQw0GAbJ--0" vertex="1">
          <mxGeometry y="52" width="160" height="26" as="geometry" />
        </mxCell>
        <mxCell id="zkfFHV4jXpPFQw0GAbJ--3" value="Email Address" style="text;align=left;verticalAlign=top;spacingLeft=4;spacingRight=4;overflow=hidden;rotatable=0;points=[[0,0.5],[1,0.5]];portConstraint=eastwest;rounded=0;shadow=0;html=0;" parent="zkfFHV4jXpPFQw0GAbJ--0" vertex="1">
          <mxGeometry y="78" width="160" height="26" as="geometry" />
        </mxCell>
        <mxCell id="zkfFHV4jXpPFQw0GAbJ--4" value="" style="line;html=1;strokeWidth=1;align=left;verticalAlign=middle;spacingTop=-1;spacingLeft=3;spacingRight=3;rotatable=0;labelPosition=right;points=[];portConstraint=eastwest;" parent="zkfFHV4jXpPFQw0GAbJ--0" vertex="1">
          <mxGeometry y="104" width="160" height="8" as="geometry" />
        </mxCell>
        <mxCell id="zkfFHV4jXpPFQw0GAbJ--5" value="Purchase Parking Pass" style="text;align=left;verticalAlign=top;spacingLeft=4;spacingRight=4;overflow=hidden;rotatable=0;points=[[0,0.5],[1,0.5]];portConstraint=eastwest;" parent="zkfFHV4jXpPFQw0GAbJ--0" vertex="1">
          <mxGeometry y="112" width="160" height="26" as="geometry" />
        </mxCell>
        <mxCell id="zkfFHV4jXpPFQw0GAbJ--12" value="" style="endArrow=block;endSize=10;endFill=0;shadow=0;strokeWidth=1;rounded=0;edgeStyle=elbowEdgeStyle;elbow=vertical;" parent="WIyWlLk6GJQsqaUBKTNV-1" target="zkfFHV4jXpPFQw0GAbJ--0" edge="1">
          <mxGeometry width="160" relative="1" as="geometry">
            <mxPoint x="200" y="360" as="sourcePoint" />
            <mxPoint x="200" y="203" as="targetPoint" />
          </mxGeometry>
        </mxCell>
        <mxCell id="zkfFHV4jXpPFQw0GAbJ--16" value="" style="endArrow=block;endSize=10;endFill=0;shadow=0;strokeWidth=1;rounded=0;edgeStyle=elbowEdgeStyle;elbow=vertical;" parent="WIyWlLk6GJQsqaUBKTNV-1" target="zkfFHV4jXpPFQw0GAbJ--0" edge="1">
          <mxGeometry width="160" relative="1" as="geometry">
            <mxPoint x="410" y="360" as="sourcePoint" />
            <mxPoint x="310" y="271" as="targetPoint" />
          </mxGeometry>
        </mxCell>
        <mxCell id="zkfFHV4jXpPFQw0GAbJ--17" value="Address" style="swimlane;fontStyle=0;align=center;verticalAlign=top;childLayout=stackLayout;horizontal=1;startSize=26;horizontalStack=0;resizeParent=1;resizeLast=0;collapsible=1;marginBottom=0;rounded=0;shadow=0;strokeWidth=1;" parent="WIyWlLk6GJQsqaUBKTNV-1" vertex="1">
          <mxGeometry x="508" y="120" width="160" height="216" as="geometry">
            <mxRectangle x="550" y="140" width="160" height="26" as="alternateBounds" />
          </mxGeometry>
        </mxCell>
        <mxCell id="zkfFHV4jXpPFQw0GAbJ--18" value="Street" style="text;align=left;verticalAlign=top;spacingLeft=4;spacingRight=4;overflow=hidden;rotatable=0;points=[[0,0.5],[1,0.5]];portConstraint=eastwest;" parent="zkfFHV4jXpPFQw0GAbJ--17" vertex="1">
          <mxGeometry y="26" width="160" height="26" as="geometry" />
        </mxCell>
        <mxCell id="zkfFHV4jXpPFQw0GAbJ--19" value="City" style="text;align=left;verticalAlign=top;spacingLeft=4;spacingRight=4;overflow=hidden;rotatable=0;points=[[0,0.5],[1,0.5]];portConstraint=eastwest;rounded=0;shadow=0;html=0;" parent="zkfFHV4jXpPFQw0GAbJ--17" vertex="1">
          <mxGeometry y="52" width="160" height="26" as="geometry" />
        </mxCell>
        <mxCell id="zkfFHV4jXpPFQw0GAbJ--20" value="State" style="text;align=left;verticalAlign=top;spacingLeft=4;spacingRight=4;overflow=hidden;rotatable=0;points=[[0,0.5],[1,0.5]];portConstraint=eastwest;rounded=0;shadow=0;html=0;" parent="zkfFHV4jXpPFQw0GAbJ--17" vertex="1">
          <mxGeometry y="78" width="160" height="26" as="geometry" />
        </mxCell>
        <mxCell id="zkfFHV4jXpPFQw0GAbJ--21" value="Postal Code" style="text;align=left;verticalAlign=top;spacingLeft=4;spacingRight=4;overflow=hidden;rotatable=0;points=[[0,0.5],[1,0.5]];portConstraint=eastwest;rounded=0;shadow=0;html=0;" parent="zkfFHV4jXpPFQw0GAbJ--17" vertex="1">
          <mxGeometry y="104" width="160" height="26" as="geometry" />
        </mxCell>
        <mxCell id="zkfFHV4jXpPFQw0GAbJ--22" value="Country" style="text;align=left;verticalAlign=top;spacingLeft=4;spacingRight=4;overflow=hidden;rotatable=0;points=[[0,0.5],[1,0.5]];portConstraint=eastwest;rounded=0;shadow=0;html=0;" parent="zkfFHV4jXpPFQw0GAbJ--17" vertex="1">
          <mxGeometry y="130" width="160" height="26" as="geometry" />
        </mxCell>
        <mxCell id="zkfFHV4jXpPFQw0GAbJ--23" value="" style="line;html=1;strokeWidth=1;align=left;verticalAlign=middle;spacingTop=-1;spacingLeft=3;spacingRight=3;rotatable=0;labelPosition=right;points=[];portConstraint=eastwest;" parent="zkfFHV4jXpPFQw0GAbJ--17" vertex="1">
          <mxGeometry y="156" width="160" height="8" as="geometry" />
        </mxCell>
        <mxCell id="zkfFHV4jXpPFQw0GAbJ--24" value="Validate" style="text;align=left;verticalAlign=top;spacingLeft=4;spacingRight=4;overflow=hidden;rotatable=0;points=[[0,0.5],[1,0.5]];portConstraint=eastwest;" parent="zkfFHV4jXpPFQw0GAbJ--17" vertex="1">
          <mxGeometry y="164" width="160" height="26" as="geometry" />
        </mxCell>
        <mxCell id="zkfFHV4jXpPFQw0GAbJ--25" value="Output As Label" style="text;align=left;verticalAlign=top;spacingLeft=4;spacingRight=4;overflow=hidden;rotatable=0;points=[[0,0.5],[1,0.5]];portConstraint=eastwest;" parent="zkfFHV4jXpPFQw0GAbJ--17" vertex="1">
          <mxGeometry y="190" width="160" height="26" as="geometry" />
        </mxCell>
        <mxCell id="zkfFHV4jXpPFQw0GAbJ--26" value="" style="endArrow=open;shadow=0;strokeWidth=1;rounded=0;endFill=1;edgeStyle=elbowEdgeStyle;elbow=vertical;" parent="WIyWlLk6GJQsqaUBKTNV-1" source="zkfFHV4jXpPFQw0GAbJ--0" target="zkfFHV4jXpPFQw0GAbJ--17" edge="1">
          <mxGeometry x="0.5" y="41" relative="1" as="geometry">
            <mxPoint x="380" y="192" as="sourcePoint" />
            <mxPoint x="540" y="192" as="targetPoint" />
            <mxPoint x="-40" y="32" as="offset" />
          </mxGeometry>
        </mxCell>
        <mxCell id="zkfFHV4jXpPFQw0GAbJ--27" value="0..1" style="resizable=0;align=left;verticalAlign=bottom;labelBackgroundColor=none;fontSize=12;" parent="zkfFHV4jXpPFQw0GAbJ--26" connectable="0" vertex="1">
          <mxGeometry x="-1" relative="1" as="geometry">
            <mxPoint y="4" as="offset" />
          </mxGeometry>
        </mxCell>
        <mxCell id="zkfFHV4jXpPFQw0GAbJ--28" value="1" style="resizable=0;align=right;verticalAlign=bottom;labelBackgroundColor=none;fontSize=12;" parent="zkfFHV4jXpPFQw0GAbJ--26" connectable="0" vertex="1">
          <mxGeometry x="1" relative="1" as="geometry">
            <mxPoint x="-7" y="4" as="offset" />
          </mxGeometry>
        </mxCell>
        <mxCell id="zkfFHV4jXpPFQw0GAbJ--29" value="lives at" style="text;html=1;resizable=0;points=[];;align=center;verticalAlign=middle;labelBackgroundColor=none;rounded=0;shadow=0;strokeWidth=1;fontSize=12;" parent="zkfFHV4jXpPFQw0GAbJ--26" vertex="1" connectable="0">
          <mxGeometry x="0.5" y="49" relative="1" as="geometry">
            <mxPoint x="-38" y="40" as="offset" />
          </mxGeometry>
        </mxCell>
      </root>
    </mxGraphModel>
  </diagram>
  <diagram id="gsDWnyjTAmVrPyMWvIxe" name="Page-2">
    <mxGraphModel dx="1154" dy="589" grid="1" gridSize="10" guides="1" tooltips="1" connect="1" arrows="1" fold="1" page="1" pageScale="1" pageWidth="827" pageHeight="1169" math="0" shadow="0">
      <root>
        <mxCell id="TFAq-750h-u_VHyeDnFk-0" />
        <mxCell id="TFAq-750h-u_VHyeDnFk-1" parent="TFAq-750h-u_VHyeDnFk-0" />
        <mxCell id="TFAq-750h-u_VHyeDnFk-2" value="Users&lt;br&gt;???" style="rounded=0;whiteSpace=wrap;html=1;" vertex="1" parent="TFAq-750h-u_VHyeDnFk-1">
          <mxGeometry x="50" y="250" width="180" height="190" as="geometry" />
        </mxCell>
        <mxCell id="TFAq-750h-u_VHyeDnFk-3" value="Orders&lt;br&gt;id&lt;br&gt;&lt;div&gt;Email Address&lt;/div&gt;&lt;div&gt;Mailing Address&lt;/div&gt;&lt;div&gt;Name on credit card&lt;/div&gt;&lt;div&gt;Credit card number&lt;/div&gt;&lt;div&gt;Credit cart expiration&lt;/div&gt;&lt;div&gt;Credit Card CVV (security code)&lt;/div&gt;&lt;div&gt;Billing zip code&lt;/div&gt;" style="rounded=0;whiteSpace=wrap;html=1;" vertex="1" parent="TFAq-750h-u_VHyeDnFk-1">
          <mxGeometry x="329" y="250" width="170" height="190" as="geometry" />
        </mxCell>
        <mxCell id="TFAq-750h-u_VHyeDnFk-4" value="Products&lt;br&gt;id&lt;br&gt;desription&lt;br&gt;name&lt;br&gt;category&lt;br&gt;price&lt;br&gt;stock&lt;br&gt;rating" style="rounded=0;whiteSpace=wrap;html=1;" vertex="1" parent="TFAq-750h-u_VHyeDnFk-1">
          <mxGeometry x="590" y="520" width="170" height="190" as="geometry" />
        </mxCell>
        <mxCell id="TFAq-750h-u_VHyeDnFk-5" value="Merchants&lt;br&gt;id&lt;br&gt;username&lt;br&gt;revenue" style="rounded=0;whiteSpace=wrap;html=1;" vertex="1" parent="TFAq-750h-u_VHyeDnFk-1">
          <mxGeometry x="590" y="250" width="180" height="190" as="geometry" />
        </mxCell>
        <mxCell id="TFAq-750h-u_VHyeDnFk-8" value="" style="endArrow=none;html=1;exitX=1;exitY=0.5;exitDx=0;exitDy=0;entryX=0;entryY=0.5;entryDx=0;entryDy=0;" edge="1" parent="TFAq-750h-u_VHyeDnFk-1" source="TFAq-750h-u_VHyeDnFk-2" target="TFAq-750h-u_VHyeDnFk-3">
          <mxGeometry width="50" height="50" relative="1" as="geometry">
            <mxPoint x="230" y="350" as="sourcePoint" />
            <mxPoint x="270" y="345" as="targetPoint" />
          </mxGeometry>
        </mxCell>
        <mxCell id="TFAq-750h-u_VHyeDnFk-15" value="has one" style="text;html=1;strokeColor=none;fillColor=none;align=center;verticalAlign=middle;whiteSpace=wrap;rounded=0;" vertex="1" parent="TFAq-750h-u_VHyeDnFk-1">
          <mxGeometry x="250" y="360" width="60" height="20" as="geometry" />
        </mxCell>
        <mxCell id="TFAq-750h-u_VHyeDnFk-16" value="" style="endArrow=classic;html=1;exitX=-0.018;exitY=0.574;exitDx=0;exitDy=0;exitPerimeter=0;" edge="1" parent="TFAq-750h-u_VHyeDnFk-1" source="TFAq-750h-u_VHyeDnFk-3">
          <mxGeometry width="50" height="50" relative="1" as="geometry">
            <mxPoint x="300" y="360" as="sourcePoint" />
            <mxPoint x="230" y="360" as="targetPoint" />
            <Array as="points" />
          </mxGeometry>
        </mxCell>
        <mxCell id="TFAq-750h-u_VHyeDnFk-17" value="OrderItem&lt;br&gt;id&lt;br&gt;product_id&lt;br&gt;order_id&lt;br&gt;quantity&lt;br&gt;&lt;br&gt;join table" style="rounded=0;whiteSpace=wrap;html=1;" vertex="1" parent="TFAq-750h-u_VHyeDnFk-1">
          <mxGeometry x="329" y="520" width="170" height="190" as="geometry" />
        </mxCell>
        <mxCell id="TFAq-750h-u_VHyeDnFk-19" value="" style="endArrow=classic;html=1;entryX=0.547;entryY=-0.016;entryDx=0;entryDy=0;entryPerimeter=0;" edge="1" parent="TFAq-750h-u_VHyeDnFk-1" target="TFAq-750h-u_VHyeDnFk-4">
          <mxGeometry width="50" height="50" relative="1" as="geometry">
            <mxPoint x="683" y="440" as="sourcePoint" />
            <mxPoint x="730" y="390" as="targetPoint" />
            <Array as="points">
              <mxPoint x="683" y="517" />
            </Array>
          </mxGeometry>
        </mxCell>
        <mxCell id="TFAq-750h-u_VHyeDnFk-21" value="has many" style="text;html=1;strokeColor=none;fillColor=none;align=center;verticalAlign=middle;whiteSpace=wrap;rounded=0;" vertex="1" parent="TFAq-750h-u_VHyeDnFk-1">
          <mxGeometry x="690" y="460" width="40" height="20" as="geometry" />
        </mxCell>
        <mxCell id="TFAq-750h-u_VHyeDnFk-23" value="" style="endArrow=classic;html=1;" edge="1" parent="TFAq-750h-u_VHyeDnFk-1">
          <mxGeometry width="50" height="50" relative="1" as="geometry">
            <mxPoint x="670" y="515" as="sourcePoint" />
            <mxPoint x="670" y="445" as="targetPoint" />
            <Array as="points">
              <mxPoint x="670" y="480" />
            </Array>
          </mxGeometry>
        </mxCell>
        <mxCell id="TFAq-750h-u_VHyeDnFk-24" value="belongs&lt;br&gt;to" style="text;html=1;strokeColor=none;fillColor=none;align=center;verticalAlign=middle;whiteSpace=wrap;rounded=0;" vertex="1" parent="TFAq-750h-u_VHyeDnFk-1">
          <mxGeometry x="620" y="470" width="40" height="20" as="geometry" />
        </mxCell>
        <mxCell id="TFAq-750h-u_VHyeDnFk-25" value="" style="endArrow=classic;html=1;entryX=0.994;entryY=0.695;entryDx=0;entryDy=0;entryPerimeter=0;exitX=-0.017;exitY=0.695;exitDx=0;exitDy=0;exitPerimeter=0;" edge="1" parent="TFAq-750h-u_VHyeDnFk-1">
          <mxGeometry width="50" height="50" relative="1" as="geometry">
            <mxPoint x="587.96" y="344.5799999999999" as="sourcePoint" />
            <mxPoint x="499" y="344.5799999999999" as="targetPoint" />
            <Array as="points" />
          </mxGeometry>
        </mxCell>
        <mxCell id="TFAq-750h-u_VHyeDnFk-26" value="has many" style="text;html=1;strokeColor=none;fillColor=none;align=center;verticalAlign=middle;whiteSpace=wrap;rounded=0;" vertex="1" parent="TFAq-750h-u_VHyeDnFk-1">
          <mxGeometry x="518.51" y="350" width="57.01" height="20" as="geometry" />
        </mxCell>
        <mxCell id="TFAq-750h-u_VHyeDnFk-27" value="" style="endArrow=classic;html=1;entryX=0;entryY=0.421;entryDx=0;entryDy=0;entryPerimeter=0;" edge="1" parent="TFAq-750h-u_VHyeDnFk-1" target="TFAq-750h-u_VHyeDnFk-5">
          <mxGeometry width="50" height="50" relative="1" as="geometry">
            <mxPoint x="499" y="330" as="sourcePoint" />
            <mxPoint x="549" y="280" as="targetPoint" />
          </mxGeometry>
        </mxCell>
        <mxCell id="TFAq-750h-u_VHyeDnFk-28" value="belongs to" style="text;html=1;strokeColor=none;fillColor=none;align=center;verticalAlign=middle;whiteSpace=wrap;rounded=0;" vertex="1" parent="TFAq-750h-u_VHyeDnFk-1">
          <mxGeometry x="517.01" y="310" width="60" height="20" as="geometry" />
        </mxCell>
        <mxCell id="TFAq-750h-u_VHyeDnFk-29" value="" style="endArrow=classic;startArrow=classic;html=1;entryX=0.006;entryY=0.413;entryDx=0;entryDy=0;entryPerimeter=0;exitX=0.419;exitY=1.01;exitDx=0;exitDy=0;exitPerimeter=0;" edge="1" parent="TFAq-750h-u_VHyeDnFk-1" source="TFAq-750h-u_VHyeDnFk-3" target="TFAq-750h-u_VHyeDnFk-4">
          <mxGeometry width="50" height="50" relative="1" as="geometry">
            <mxPoint x="410" y="540" as="sourcePoint" />
            <mxPoint x="460" y="490" as="targetPoint" />
            <Array as="points" />
          </mxGeometry>
        </mxCell>
        <mxCell id="TFAq-750h-u_VHyeDnFk-30" value="Category:&lt;br&gt;&lt;br&gt;Celebrity I&lt;br&gt;Politician L&lt;br&gt;Animal &amp;nbsp; L&lt;br&gt;Entrepreneurs &amp;nbsp;I&lt;br&gt;&amp;nbsp;Scientist &amp;nbsp; T&lt;br&gt;Artist &amp;nbsp; O&lt;br&gt;Activist T&lt;br&gt;Superhero &amp;nbsp;O" style="text;html=1;strokeColor=none;fillColor=none;align=center;verticalAlign=middle;whiteSpace=wrap;rounded=0;" vertex="1" parent="TFAq-750h-u_VHyeDnFk-1">
          <mxGeometry x="25" y="520" width="230" height="150" as="geometry" />
        </mxCell>
      </root>
    </mxGraphModel>
  </diagram>
</mxfile>
